<svg width="127" height="30" viewBox="0 0 127 30" fill="none" xmlns="http://www.w3.org/2000/svg">
<g clip-path="url(#clip0_184_10078)">
<path d="M0 0.0406494V10.0283H9.98768V20.0123H19.9717V30H29.9594V0.0406494H0Z" fill="#D98C45"/>
<path d="M9.98768 20.0123H0V30H9.98768V20.0123Z" fill="#D98C45"/>
<path d="M45.3529 0L39.947 12.8439H42.6592L43.8785 10.0985H50.3375L51.579 12.8439H54.2727L48.8631 0H45.3529ZM49.2881 7.75219H44.9279L47.1154 2.18377L49.2881 7.75219Z" fill="#332821"/>
<path d="M71.2107 12.8439V0H68.1697L63.4216 10.0985L58.7178 0.114546L58.6735 0.0184752L55.6324 0V12.8439H58.3926V5.53516L61.8992 12.8439H64.9476L68.4505 5.53516V12.8439H71.2107Z" fill="#332821"/>
<path d="M85.481 12.116C85.9724 11.6283 86.2237 11.0334 86.2237 10.3424V8.02192C86.2237 7.48614 86.0316 7.02426 85.651 6.64367L85.4219 6.42567L85.6547 6.21505C86.0315 5.83816 86.2237 5.36889 86.2237 4.82202V2.50523C86.2237 1.82904 85.9761 1.23414 85.481 0.742702C84.9895 0.251262 84.391 0 83.7 0H73.3945V12.8439H83.7C84.391 12.8439 84.9859 12.5964 85.481 12.1123V12.116ZM83.6261 4.37123C83.6261 4.53381 83.5707 4.66683 83.4561 4.78507C83.3453 4.90331 83.2122 4.95874 83.0534 4.95874H76.1732V2.40177H83.0534C83.2122 2.40177 83.3453 2.4572 83.4561 2.56805C83.567 2.6789 83.6224 2.81192 83.6224 2.97081V4.36753L83.6261 4.37123ZM83.6261 8.1143V9.51102C83.6261 9.6736 83.5707 9.80663 83.4561 9.92487C83.3453 10.0431 83.2122 10.0985 83.0534 10.0985H76.1732V7.54157H83.0534C83.2122 7.54157 83.3453 7.59699 83.4561 7.70785C83.567 7.8187 83.6224 7.95172 83.6224 8.1106L83.6261 8.1143Z" fill="#332821"/>
<path d="M50.4668 17.1006H42.4486C41.7576 17.1006 41.1627 17.3519 40.675 17.8433C40.1909 18.3348 39.9434 18.926 39.9434 19.6059V27.443C39.9434 28.1192 40.1909 28.7141 40.675 29.2056C41.159 29.697 41.7576 29.9483 42.4486 29.9483H50.4668C51.1578 29.9483 51.7527 29.7007 52.2367 29.2166C52.7208 28.7326 52.9684 28.134 52.9684 27.4467V25.8985H50.3892V26.8001C50.3892 26.959 50.3338 27.092 50.2229 27.2028C50.1121 27.3174 49.9791 27.3691 49.8202 27.3691H43.0952C42.9326 27.3691 42.7996 27.3137 42.6777 27.1992C42.5594 27.0883 42.504 26.9553 42.504 26.7964V20.271C42.504 20.101 42.5594 19.9643 42.6777 19.8497C42.7959 19.7352 42.9326 19.6798 43.0952 19.6798H49.8202C49.9791 19.6798 50.1121 19.7352 50.2229 19.846C50.3338 19.9569 50.3892 20.0973 50.3892 20.2673V21.1689H52.9684V19.6022C52.9684 18.926 52.7208 18.3311 52.2367 17.8396C51.749 17.3482 51.1541 17.0969 50.4668 17.0969V17.1006Z" fill="#332821"/>
<path d="M65.2617 17.1006H55.1373V29.9446H57.8975V26.2052H61.9953L64.4932 29.9446H67.4972L65.0326 26.2495L65.5352 26.2015C66.1596 26.1239 66.6917 25.8505 67.1203 25.3849C67.5489 24.9193 67.767 24.3577 67.767 23.7184V19.6022C67.767 18.926 67.5194 18.3311 67.0353 17.8396C66.5513 17.3482 65.9527 17.0969 65.2654 17.0969L65.2617 17.1006ZM64.6151 23.6445H57.8938V19.6798H64.6151C64.774 19.6798 64.907 19.7352 65.0179 19.846C65.1287 19.9569 65.1841 20.0973 65.1841 20.2673V23.0533C65.1841 23.2159 65.1287 23.3489 65.0142 23.4672C64.9033 23.5854 64.7703 23.6408 64.6114 23.6408L64.6151 23.6445Z" fill="#332821"/>
<path d="M75.1866 22.6025L71.9349 17.1006H68.9752L73.8157 25.0967V29.9446H76.5722V25.0967L81.4127 17.1006H78.4345L75.1866 22.6025Z" fill="#332821"/>
<path d="M92.3907 17.1006H82.6432V29.9446H85.4034V26.2052H92.3944C93.0854 26.2052 93.6803 25.9576 94.1643 25.4736C94.6484 24.9895 94.8959 24.3983 94.8959 23.7221V19.6059C94.8959 18.9297 94.6484 18.3348 94.1643 17.8433C93.6803 17.3519 93.0817 17.1006 92.3944 17.1006H92.3907ZM85.3997 19.6798H91.7404C91.8993 19.6798 92.0323 19.7352 92.1431 19.846C92.254 19.9569 92.3094 20.0973 92.3094 20.2673V23.0533C92.3094 23.2159 92.254 23.3489 92.1394 23.4672C92.0286 23.5854 91.8956 23.6408 91.7367 23.6408H85.396V19.6761L85.3997 19.6798Z" fill="#332821"/>
<path d="M97.0797 19.6798H102.112V29.9446H104.869V19.6798H109.905V17.1006H97.0797V19.6798Z" fill="#332821"/>
<path d="M125.192 17.9579C124.623 17.3888 123.932 17.1006 123.133 17.1006H115.008C114.199 17.1006 113.504 17.3888 112.939 17.9579C112.377 18.5269 112.089 19.2179 112.089 20.016V27.0292C112.089 27.8273 112.374 28.5183 112.939 29.0873C113.5 29.6564 114.199 29.9446 115.008 29.9446H123.133C123.932 29.9446 124.623 29.6564 125.192 29.0873C125.761 28.5183 126.049 27.8273 126.049 27.0292V20.016C126.049 19.2179 125.761 18.5269 125.192 17.9579ZM123.47 20.6442V26.3973C123.47 26.6671 123.377 26.8888 123.185 27.0809C122.993 27.2731 122.771 27.3654 122.502 27.3654H115.618C115.348 27.3654 115.126 27.2731 114.934 27.0809C114.742 26.8888 114.65 26.6671 114.65 26.3973V20.6442C114.65 20.3744 114.742 20.1527 114.934 19.9606C115.126 19.7684 115.348 19.6761 115.618 19.6761H122.502C122.771 19.6761 122.993 19.7684 123.185 19.9606C123.377 20.1527 123.47 20.3744 123.47 20.6442Z" fill="#332821"/>
</g>
<defs>
<clipPath id="clip0_184_10078">
<rect width="126.049" height="30" fill="white"/>
</clipPath>
</defs>
</svg>
