<svg width="170" height="40" viewBox="0 0 170 40" fill="none" xmlns="http://www.w3.org/2000/svg">
<g clip-path="url(#clip0_371_959)">
<path d="M55.8005 23.25C56.3105 23.25 56.6905 23.11 56.9405 22.83C57.1905 22.55 57.3105 22.14 57.3105 21.6H60.8005L60.8205 21.67C60.8505 23 60.3905 24.09 59.4305 24.93C58.4805 25.77 57.2605 26.19 55.7805 26.19C53.9305 26.19 52.4905 25.61 51.4905 24.46C50.4805 23.31 49.9805 21.81 49.9805 19.97V19.71C49.9805 17.88 50.4805 16.38 51.4805 15.23C52.4805 14.07 53.9005 13.49 55.7405 13.49C57.2905 13.49 58.5305 13.92 59.4605 14.79C60.3905 15.66 60.8405 16.84 60.8105 18.33L60.7905 18.4H57.3005C57.3005 17.82 57.1705 17.35 56.9205 16.98C56.6605 16.61 56.2805 16.43 55.7605 16.43C55.0405 16.43 54.5305 16.73 54.2405 17.32C53.9505 17.92 53.8005 18.71 53.8005 19.71V19.97C53.8005 21 53.9505 21.8 54.2405 22.38C54.5305 22.96 55.0505 23.25 55.7905 23.25H55.8005Z" fill="#211B2E"/>
<path d="M69.3102 17.08H67.9202C67.4802 17.07 67.1202 17.14 66.8502 17.29C66.5702 17.44 66.3602 17.65 66.2302 17.92V25.95H62.4102V13.71H66.0102L66.1502 15.51C66.4102 14.87 66.7502 14.37 67.1702 14.02C67.5902 13.67 68.0902 13.49 68.6502 13.49C68.8302 13.49 69.0202 13.5 69.2002 13.53C69.3902 13.56 69.5502 13.59 69.7002 13.63L69.3302 17.09L69.3102 17.08Z" fill="#211B2E"/>
<path d="M76.5707 20.56V20.65H76.6507L78.6707 13.72H82.7407L77.8707 27.78C77.4907 28.68 77.0107 29.43 76.4107 30.02C75.8107 30.61 74.8707 30.9 73.5707 30.9C73.2407 30.9 72.9707 30.88 72.7607 30.84C72.5507 30.8 72.2207 30.72 71.7607 30.61L72.2207 27.89C72.3307 27.91 72.4007 27.93 72.4607 27.94C72.5107 27.95 72.5807 27.96 72.6607 27.96C73.2607 27.96 73.7007 27.87 73.9807 27.69C74.2607 27.51 74.4707 27.24 74.6007 26.89L74.9107 26.09L70.6807 13.72H74.7407L76.5607 20.56H76.5707Z" fill="#211B2E"/>
<path d="M95.0702 20.09C95.0702 21.93 94.6602 23.41 93.8302 24.52C93.0002 25.63 91.8302 26.19 90.3202 26.19C89.7302 26.19 89.2102 26.08 88.7502 25.85C88.2902 25.62 87.9002 25.3 87.5602 24.87V30.66H83.7402V13.71H87.3102L87.4502 15.06C87.8002 14.56 88.2002 14.17 88.6702 13.9C89.1402 13.63 89.6802 13.49 90.3002 13.49C91.8202 13.49 92.9902 14.07 93.8202 15.24C94.6502 16.41 95.0702 17.95 95.0702 19.85V20.09ZM91.2602 19.85C91.2602 18.82 91.1102 17.99 90.8102 17.36C90.5102 16.73 90.0302 16.42 89.3602 16.42C88.9302 16.42 88.5702 16.5 88.2702 16.66C87.9702 16.82 87.7402 17.05 87.5602 17.35V22.46C87.7402 22.72 87.9802 22.92 88.2802 23.05C88.5802 23.18 88.9502 23.24 89.3802 23.24C90.0502 23.24 90.5302 22.96 90.8202 22.41C91.1102 21.86 91.2602 21.08 91.2602 20.09V19.85Z" fill="#211B2E"/>
<path d="M101.281 10.67V13.71H103.351V16.36H101.281V21.97C101.281 22.41 101.371 22.72 101.551 22.91C101.731 23.1 101.971 23.2 102.271 23.2C102.511 23.2 102.701 23.2 102.841 23.18C102.981 23.17 103.161 23.13 103.381 23.09L103.651 25.92C103.231 26.02 102.851 26.09 102.511 26.13C102.171 26.17 101.771 26.19 101.311 26.19C100.051 26.19 99.1007 25.85 98.4507 25.18C97.8007 24.51 97.4807 23.45 97.4807 21.99V16.36H95.7607V13.71H97.4807V10.67H101.291H101.281Z" fill="#211B2E"/>
<path d="M104.301 19.72C104.301 17.88 104.821 16.38 105.861 15.22C106.901 14.06 108.351 13.48 110.211 13.48C112.071 13.48 113.531 14.06 114.581 15.22C115.621 16.38 116.141 17.88 116.141 19.72V19.96C116.141 21.81 115.621 23.31 114.581 24.46C113.541 25.61 112.091 26.19 110.241 26.19C108.391 26.19 106.901 25.61 105.861 24.46C104.821 23.31 104.301 21.81 104.301 19.96V19.72ZM108.121 19.96C108.121 20.99 108.281 21.79 108.601 22.37C108.921 22.95 109.471 23.25 110.231 23.25C110.991 23.25 111.511 22.96 111.841 22.37C112.161 21.78 112.331 20.98 112.331 19.96V19.72C112.331 18.72 112.171 17.93 111.841 17.33C111.521 16.73 110.971 16.43 110.211 16.43C109.451 16.43 108.921 16.73 108.601 17.33C108.281 17.93 108.121 18.73 108.121 19.72V19.96Z" fill="#211B2E"/>
<path d="M121.341 13.71L121.491 15.43C121.891 14.82 122.381 14.34 122.971 14C123.561 13.66 124.211 13.49 124.941 13.49C126.141 13.49 127.081 13.88 127.751 14.65C128.421 15.43 128.761 16.66 128.761 18.36V25.95H124.941V18.35C124.941 17.65 124.791 17.15 124.501 16.86C124.211 16.57 123.781 16.42 123.221 16.42C122.871 16.42 122.551 16.48 122.281 16.61C122.001 16.74 121.771 16.92 121.571 17.14V25.94H117.761V13.71H121.341Z" fill="#211B2E"/>
<path d="M136.431 26.19C134.631 26.19 133.191 25.62 132.121 24.49C131.051 23.36 130.511 21.94 130.511 20.24V19.81C130.511 17.95 131.001 16.43 131.971 15.25C132.951 14.07 134.341 13.48 136.161 13.49C137.821 13.49 139.121 13.99 140.061 14.98C141.001 15.98 141.471 17.32 141.471 19.03V21.03H134.481L134.461 21.1C134.541 21.73 134.801 22.24 135.231 22.64C135.661 23.04 136.231 23.25 136.951 23.25C137.671 23.25 138.251 23.19 138.691 23.08C139.131 22.97 139.671 22.77 140.341 22.49L141.241 24.82C140.701 25.21 140.011 25.54 139.161 25.8C138.311 26.06 137.401 26.19 136.431 26.19ZM136.161 16.43C135.611 16.43 135.201 16.63 134.921 17.02C134.641 17.41 134.481 17.94 134.421 18.59L134.451 18.65H137.741V18.36C137.741 17.74 137.611 17.27 137.361 16.94C137.101 16.61 136.701 16.44 136.161 16.44V16.43Z" fill="#211B2E"/>
<path d="M153.59 20.81H153.66L154.98 13.72H158.51L155.64 25.96H152.41L150.42 19.47H150.35L148.35 25.96H145.13L142.25 13.72H145.78L147.13 20.87H147.2L149.19 13.72H151.6L153.61 20.81H153.59Z" fill="#211B2E"/>
<path d="M166.261 22.51C166.261 22.21 166.091 21.94 165.751 21.7C165.411 21.46 164.781 21.25 163.881 21.06C162.451 20.78 161.381 20.35 160.661 19.76C159.941 19.17 159.571 18.37 159.571 17.35C159.571 16.27 160.021 15.36 160.931 14.61C161.831 13.86 163.061 13.48 164.611 13.48C166.241 13.48 167.531 13.84 168.501 14.57C169.461 15.3 169.921 16.24 169.881 17.39L169.861 17.46H166.151C166.151 16.98 166.031 16.61 165.781 16.36C165.531 16.11 165.141 15.99 164.601 15.99C164.201 15.99 163.861 16.1 163.591 16.32C163.321 16.54 163.181 16.82 163.181 17.16C163.181 17.5 163.341 17.76 163.651 17.99C163.961 18.22 164.591 18.42 165.541 18.6C167.031 18.89 168.141 19.33 168.861 19.92C169.581 20.5 169.941 21.33 169.941 22.4C169.941 23.47 169.451 24.41 168.481 25.12C167.501 25.83 166.211 26.19 164.611 26.19C163.011 26.19 161.631 25.77 160.661 24.92C159.691 24.08 159.231 23.13 159.271 22.09L159.291 22.02H162.751C162.761 22.6 162.941 23.02 163.281 23.28C163.621 23.54 164.091 23.66 164.711 23.66C165.221 23.66 165.611 23.56 165.871 23.36C166.131 23.16 166.271 22.88 166.271 22.51H166.261Z" fill="#211B2E"/>
<path d="M29.9965 20.0015L19.998 30L29.9965 39.9985L39.995 30L29.9965 20.0015Z" fill="#351774"/>
<path d="M30 0H10L20 10L30 20L40 10L30 0Z" fill="#DA5991"/>
<path d="M20 30L10 20L0 30L10 40H30L20 30Z" fill="#591C7E"/>
<path d="M10 0L0 10V30L10 20L20 10L10 0Z" fill="#A72E83"/>
</g>
<defs>
<clipPath id="clip0_371_959">
<rect width="169.94" height="40" fill="white"/>
</clipPath>
</defs>
</svg>
